:FULLY-SPECIFIED
:FORCE-ALL-JOINTS-BE-3DOF
:DEGREES
611
root 5.98893 16.2775 -2.89203 -16.0822 68.7155 -23.5892
lfemur -18.97 17.5524 -20.2759
ltibia 49.554 0 0
lfoot -26.1652 10.4491 0
ltoes -0.5313 0 0
rfemur -45.2288 -11.9939 19.7292
rtibia 53.904 0 0
rfoot 0.421516 8.96526 0
rtoes -21.6161 0 0
lowerback 2.98784 -2.27005 -5.41123
upperback 1.11521 -3.17955 1.65054
thorax -0.227977 -1.62108 4.80506
lowerneck -6.41074 -11.4078 -3.00259
upperneck 11.3857 -15.8643 6.14222
head 5.32023 -7.4826 1.2342
lclavicle 2.49896e-14 -4.71963e-15 0
lhumerus -20.9678 -36.0161 86.5073
lradius 58.8256 0 0
lwrist 25.2852 0 0
lhand -17.2393 -1.95887 0
lfingers 7.12502 0 0
lthumb 9.00382 27.815 0
rclavicle 2.49896e-14 -4.71963e-15 0
rhumerus 11.9241 10.8863 -70.4041
rradius 121.72 0 0
rwrist -42.8216 0 0
rhand -27.512 -25.2234 0
rfingers 7.12502 0 0
rthumb -0.914578 -775.203 0
612
root 5.98024 16.2665 -2.85231 -15.5405 67.5093 -23.1951
lfemur -19.0601 17.7411 -20.3909
ltibia 49.9082 0 0
lfoot -25.731 10.234 0
ltoes -0.575007 0 0
rfemur -45.3356 -12.1095 19.9203
rtibia 54.2292 0 0
rfoot -0.0173686 8.69283 0
rtoes -21.2552 0 0
lowerback 2.91979 -2.33911 -5.3346
upperback 1.06635 -3.26893 1.64899
thorax -0.240178 -1.66519 4.75854
lowerneck -6.47763 -11.2997 -2.95029
upperneck 11.2316 -15.7127 6.0827
head 5.27447 -7.41234 1.22034
lclavicle 2.50202e-14 -4.79368e-15 0
lhumerus -20.8032 -36.6358 86.6261
lradius 59.2529 0 0
lwrist 25.3209 0 0
lhand -17.1362 -1.9182 0
lfingers 7.12502 0 0
lthumb 9.1033 27.8505 0
rclavicle 2.50202e-14 -4.79368e-15 0
rhumerus 10.9376 10.517 -70.1782
rradius 120.8 0 0
rwrist -42.4977 0 0
rhand -27.4992 -25.5912 0
rfingers 7.12502 0 0
rthumb -0.902249 -775.571 0
613
root 5.97137 16.2552 -2.81178 -14.9897 66.278 -22.7952
lfemur -19.1517 17.9336 -20.509
ltibia 50.2693 0 0
lfoot -25.2876 10.0141 0
ltoes -0.620192 0 0
rfemur -45.4454 -12.228 20.1157
rtibia 54.5628 0 0
rfoot -0.466237 8.41394 0
rtoes -20.8863 0 0
lowerback 2.85026 -2.40968 -5.25623
upperback 1.01646 -3.36027 1.6475
thorax -0.252614 -1.71027 4.71107
lowerneck -6.54602 -11.1893 -2.89687
upperneck 11.074 -15.5578 6.02182
head 5.22769 -7.34057 1.20615
lclavicle 2.50434e-14 -4.87217e-15 0
lhumerus -20.6357 -37.2696 86.7487
lradius 59.6895 0 0
lwrist 25.3573 0 0
lhand -17.0307 -1.87656 0
lfingers 7.12502 0 0
lthumb 9.20501 27.8869 0
rclavicle 2.50434e-14 -4.87217e-15 0
rhumerus 9.92963 10.1396 -69.9481
rradius 119.86 0 0
rwrist -42.1667 0 0
rhand -27.486 -25.967 0
rfingers 7.12502 0 0
rthumb -0.889464 -775.947 0
614
root 5.96234 16.2437 -2.77047 -14.4302 65.0226 -22.3897
lfemur -19.2449 18.1298 -20.6301
ltibia 50.6372 0 0
lfoot -24.8353 9.78968 0
ltoes -0.666673 0 0
rfemur -45.558 -12.349 20.3152
rtibia 54.9042 0 0
rfoot -0.924511 8.12892 0
rtoes -20.5096 0 0
lowerback 2.77931 -2.48169 -5.17622
upperback 0.965571 -3.45347 1.64605
thorax -0.265283 -1.75627 4.66266
lowerneck -6.61582 -11.0767 -2.84237
upperneck 10.9131 -15.3997 5.95966
head 5.17995 -7.26737 1.19166
lclavicle 2.50594e-14 -4.95479e-15 0
lhumerus -20.4653 -37.9167 86.8745
lradius 60.135 0 0
lwrist 25.3944 0 0
lhand -16.9231 -1.83402 0
lfingers 7.12502 0 0
lthumb 9.30882 27.924 0
rclavicle 2.50594e-14 -4.95479e-15 0
rhumerus 8.90108 9.75474 -69.7137
rradius 118.901 0 0
rwrist -41.829 0 0
rhand -27.4723 -26.3504 0
rfingers 7.12502 0 0
rthumb -0.876266 -776.331 0
615
root 5.95314 16.2319 -2.72839 -13.8625 63.744 -21.9788
lfemur -19.3396 18.3294 -20.7538
ltibia 51.0117 0 0
lfoot -24.3744 9.56101 0
ltoes -0.714271 0 0
rfemur -45.6729 -12.4725 20.5183
rtibia 55.2528 0 0
rfoot -1.39161 7.83811 0
rtoes -20.1256 0 0
lowerback 2.70705 -2.55506 -5.09464
upperback 0.913742 -3.54844 1.64462
thorax -0.278182 -1.80314 4.61337
lowerneck -6.68695 -10.9619 -2.78686
upperneck 10.7491 -15.2387 5.89629
head 5.13128 -7.1928 1.17689
lclavicle 2.50682e-14 -5.04127e-15 0
lhumerus -20.2921 -38.5761 87.0032
lradius 60.589 0 0
lwrist 25.4322 0 0
lhand -16.8134 -1.79064 0
lfingers 7.12502 0 0
lthumb 9.41459 27.9619 0
rclavicle 2.50682e-14 -5.04127e-15 0
rhumerus 7.85302 9.36263 -69.4751
rradius 117.923 0 0
rwrist -41.4847 0 0
rhand -27.4583 -26.741 0
rfingers 7.12502 0 0
rthumb -0.862698 -776.722 0
616
root 5.9438 16.2199 -2.68558 -13.287 62.4433 -21.563
lfemur -19.4359 18.5321 -20.8798
ltibia 51.3927 0 0
lfoot -23.9055 9.32827 0
ltoes -0.762804 0 0
rfemur -45.7901 -12.5983 20.7249
rtibia 55.6079 0 0
rfoot -1.86696 7.54183 0
rtoes -19.7346 0 0
lowerback 2.63354 -2.62972 -5.01158
upperback 0.861021 -3.64507 1.64321
thorax -0.291309 -1.85083 4.56323
lowerneck -6.75932 -10.8452 -2.73038
upperneck 10.5822 -15.0749 5.83177
head 5.08174 -7.11692 1.16185
lclavicle 2.50699e-14 -5.13131e-15 0
lhumerus -20.1159 -39.2472 87.1343
lradius 61.0509 0 0
lwrist 25.4707 0 0
lhand -16.7019 -1.74648 0
lfingers 7.12502 0 0
lthumb 9.52218 28.0005 0
rclavicle 2.50699e-14 -5.13131e-15 0
rhumerus 6.78649 8.9637 -69.2323
rradius 116.928 0 0
rwrist -41.1342 0 0
rhand -27.4439 -27.1384 0
rfingers 7.12502 0 0
rthumb -0.848805 -777.119 0
617
root 5.93431 16.2077 -2.64205 -12.7043 61.1215 -21.1425
lfemur -19.5338 18.7379 -21.0077
ltibia 51.78 0 0
lfoot -23.4289 9.09167 0
ltoes -0.812089 0 0
rfemur -45.909 -12.7261 20.9348
rtibia 55.9691 0 0
rfoot -2.34998 7.24041 0
rtoes -19.337 0 0
lowerback 2.55888 -2.70559 -4.92713
upperback 0.807454 -3.74326 1.64179
thorax -0.304661 -1.89929 4.51226
lowerneck -6.83285 -10.7266 -2.67299
upperneck 10.4126 -14.9085 5.76619
head 5.03138 -7.03982 1.14657
lclavicle 2.50645e-14 -5.22463e-15 0
lhumerus -19.9369 -39.9292 87.2674
lradius 61.5204 0 0
lwrist 25.5098 0 0
lhand -16.5886 -1.70162 0
lfingers 7.12502 0 0
lthumb 9.63145 28.0397 0
rclavicle 2.50645e-14 -5.22463e-15 0
rhumerus 5.70251 8.55833 -68.9855
rradius 115.917 0 0
rwrist -40.7777 0 0
rhand -27.4292 -27.5422 0
rfingers 7.12502 0 0
rthumb -0.834627 -777.523 0
618
root 5.92469 16.1953 -2.59785 -12.1148 59.7797 -20.7177
lfemur -19.6333 18.9463 -21.1373
ltibia 52.1736 0 0
lfoot -22.945 8.85142 0
ltoes -0.861947 0 0
rfemur -46.0296 -12.8557 21.1476
rtibia 56.3356 0 0
rfoot -2.84008 6.93417 0
rtoes -18.9331 0 0
lowerback 2.48314 -2.78259 -4.84136
upperback 0.753091 -3.84292 1.64035
thorax -0.318234 -1.94847 4.46051
lowerneck -6.90746 -10.6062 -2.61474
upperneck 10.2403 -14.7395 5.69961
head 4.98023 -6.96156 1.13105
lclavicle 2.50521e-14 -5.32093e-15 0
lhumerus -19.755 -40.6212 87.402
lradius 61.997 0 0
lwrist 25.5495 0 0
lhand -16.4737 -1.65613 0
lfingers 7.12502 0 0
lthumb 9.74226 28.0794 0
rclavicle 2.50521e-14 -5.32093e-15 0
rhumerus 4.60213 8.14688 -68.7347
rradius 114.89 0 0
rwrist -40.4156 0 0
rhand -27.4143 -27.952 0
rfingers 7.12502 0 0
rthumb -0.82021 -777.934 0
619
root 5.91494 16.1828 -2.55298 -11.519 58.4189 -20.2887
lfemur -19.7344 19.1573 -21.2682
ltibia 52.5733 0 0
lfoot -22.4542 8.60774 0
ltoes -0.912195 0 0
rfemur -46.1514 -12.987 21.3631
rtibia 56.7069 0 0
rfoot -3.3367 6.62346 0
rtoes -18.5233 0 0
lowerback 2.40642 -2.86064 -4.75438
upperback 0.697981 -3.94394 1.63887
thorax -0.332028 -1.99833 4.40801
lowerneck -6.98307 -10.4841 -2.55569
upperneck 10.0656 -14.5682 5.6321
head 4.92836 -6.88222 1.11533
lclavicle 2.50327e-14 -5.41993e-15 0
lhumerus -19.5702 -41.3224 87.5377
lradius 62.4803 0 0
lwrist 25.5898 0 0
lhand -16.3574 -1.61007 0
lfingers 7.12502 0 0
lthumb 9.85449 28.1196 0
rclavicle 2.50327e-14 -5.41993e-15 0
rhumerus 3.48637 7.72974 -68.4799
rradius 113.85 0 0
rwrist -40.0481 0 0
rhand -27.3991 -28.3675 0
rfingers 7.12502 0 0
rthumb -0.805596 -778.349 0
620
root 5.90507 16.1701 -2.50747 -10.9174 57.04 -19.8559
lfemur -19.8371 19.3705 -21.4001
ltibia 52.9789 0 0
lfoot -21.9569 8.36085 0
ltoes -0.962653 0 0
rfemur -46.2743 -13.1199 21.5811
rtibia 57.0824 0 0
rfoot -3.83926 6.30858 0
rtoes -18.108 0 0
lowerback 2.32878 -2.93967 -4.66625
upperback 0.642172 -4.04623 1.63734
thorax -0.346038 -2.04881 4.35479
lowerneck -7.05959 -10.3605 -2.49588
upperneck 9.88855 -14.3946 5.56374
head 4.87579 -6.80185 1.09941
lclavicle 2.50064e-14 -5.52134e-15 0
lhumerus -19.3824 -42.032 87.674
lradius 62.9698 0 0
lwrist 25.6306 0 0
lhand -16.2397 -1.56351 0
lfingers 7.12502 0 0
lthumb 9.96798 28.1603 0
rclavicle 2.50064e-14 -5.52134e-15 0
rhumerus 2.35627 7.30729 -68.2213
rradius 112.796 0 0
rwrist -39.6756 0 0
rhand -27.3838 -28.7883 0
rfingers 7.12502 0 0
rthumb -0.790828 -778.77 0
621
root 5.89508 16.1573 -2.46136 -10.3103 55.6442 -19.4197
lfemur -19.9414 19.5858 -21.5327
ltibia 53.3904 0 0
lfoot -21.4535 8.11095 0
ltoes -1.01314 0 0
rfemur -46.3979 -13.254 21.8012
rtibia 57.4615 0 0
rfoot -4.34716 5.98988 0
rtoes -17.6875 0 0
lowerback 2.25031 -3.0196 -4.57708
upperback 0.585711 -4.14968 1.63575
thorax -0.360263 -2.09987 4.30089
lowerneck -7.13693 -10.2354 -2.43537
upperneck 9.70944 -14.219 5.4946
head 4.82259 -6.72052 1.08332
lclavicle 2.49732e-14 -5.62487e-15 0
lhumerus -19.1918 -42.7493 87.8106
lradius 63.465 0 0
lwrist 25.672 0 0
lhand -16.1209 -1.51651 0
lfingers 7.12502 0 0
lthumb 10.0826 28.2013 0
rclavicle 2.49732e-14 -5.62487e-15 0
rhumerus 1.21286 6.87991 -67.9589
rradius 111.731 0 0
rwrist -39.2982 0 0
rhand -27.3684 -29.2138 0
rfingers 7.12502 0 0
rthumb -0.77595 -779.196 0
622
root 5.88499 16.1445 -2.41466 -9.69834 54.2325 -18.9802
lfemur -20.0473 19.8029 -21.6657
ltibia 53.8075 0 0
lfoot -20.9444 7.85825 0
ltoes -1.06347 0 0
rfemur -46.5219 -13.3892 22.0233
rtibia 57.8435 0 0
rfoot -4.85985 5.66768 0
rtoes -17.2623 0 0
lowerback 2.1711 -3.10035 -4.48693
upperback 0.528649 -4.2542 1.63407
thorax -0.3747 -2.15145 4.24635
lowerneck -7.21503 -10.1089 -2.37421
upperneck 9.52838 -14.0415 5.42475
head 4.7688 -6.63832 1.06707
lclavicle 2.49333e-14 -5.73022e-15 0
lhumerus -18.9982 -43.4734 87.947
lradius 63.9656 0 0
lwrist 25.7138 0 0
lhand -16.001 -1.46915 0
lfingers 7.12502 0 0
lthumb 10.1982 28.2427 0
rclavicle 2.49333e-14 -5.73022e-15 0
rhumerus 0.0571828 6.44796 -67.6928
rradius 110.654 0 0
rwrist -38.9163 0 0
rhand -27.353 -29.6439 0
rfingers 7.12502 0 0
rthumb -0.761004 -779.626 0
623
root 5.8748 16.1316 -2.36741 -9.08193 52.8059 -18.5379
lfemur -20.1548 20.0216 -21.7988
ltibia 54.2303 0 0
lfoot -20.43 7.60298 0
ltoes -1.11347 0 0
rfemur -46.6461 -13.5253 22.2471
rtibia 58.228 0 0
rfoot -5.37673 5.34231 0
rtoes -16.8325 0 0
lowerback 2.09123 -3.18185 -4.3959
upperback 0.471034 -4.35969 1.6323
thorax -0.389346 -2.20351 4.1912
lowerneck -7.29378 -9.98118 -2.31246
upperneck 9.34553 -13.8623 5.35426
head 4.71446 -6.55531 1.05068
lclavicle 2.48867e-14 -5.83712e-15 0
lhumerus -18.8016 -44.2035 88.0827
lradius 64.4712 0 0
lwrist 25.7562 0 0
lhand -15.8802 -1.42148 0
lfingers 7.12502 0 0
lthumb 10.3147 28.2843 0
rclavicle 2.48867e-14 -5.83712e-15 0
rhumerus -1.10974 6.01184 -67.423
rradius 109.568 0 0
rwrist -38.5302 0 0
rhand -27.3375 -30.078 0
rfingers 7.12502 0 0
rthumb -0.746033 -780.061 0
624
root 5.86452 16.1186 -2.31961 -8.46153 51.3653 -18.0929
lfemur -20.2639 20.2417 -21.9316
ltibia 54.6584 0 0
lfoot -19.9107 7.34534 0
ltoes -1.16296 0 0
rfemur -46.7702 -13.6622 22.4723
rtibia 58.6142 0 0
rfoot -5.89723 5.0141 0
rtoes -16.3987 0 0
lowerback 2.01077 -3.26402 -4.30407
upperback 0.412913 -4.46605 1.63041
thorax -0.404199 -2.25599 4.13548
lowerneck -7.37312 -9.85233 -2.25016
upperneck 9.16107 -13.6814 5.2832
head 4.65962 -6.47156 1.03417
lclavicle 2.48334e-14 -5.94527e-15 0
lhumerus -18.6021 -44.9389 88.2174
lradius 64.9811 0 0
lwrist 25.799 0 0
lhand -15.7587 -1.37359 0
lfingers 7.12502 0 0
lthumb 10.4319 28.3261 0
rclavicle 2.48334e-14 -5.94527e-15 0
rhumerus -2.28686 5.57192 -67.1496
rradius 108.473 0 0
rwrist -38.1402 0 0
rhand -27.322 -30.5159 0
rfingers 7.12502 0 0
rthumb -0.731082 -780.499 0
